<svg width="17" height="17" viewBox="0 0 17 17" fill="none" xmlns="http://www.w3.org/2000/svg">
<g clip-path="url(#clip0_7_2806)">
<path d="M9.7039 8.16035L9.35036 8.5139L9.7039 8.86745L16.3234 15.4871L16.3235 15.4872C16.5589 15.7225 16.5589 16.102 16.3235 16.3373L16.3234 16.3374C16.2059 16.4548 16.0527 16.5136 15.8982 16.5136C15.7438 16.5136 15.5906 16.4548 15.4731 16.3374L8.85346 9.7177L8.4999 9.36414L8.14635 9.71771L1.52689 16.3374C1.40944 16.4548 1.25624 16.5136 1.10176 16.5136C0.947154 16.5136 0.793892 16.4547 0.676807 16.3375L0.676558 16.3373C0.441147 16.102 0.441147 15.7225 0.676558 15.4872L0.676646 15.4871L7.29611 8.86745L7.64965 8.5139L7.29611 8.16035L0.676646 1.54069L0.676558 1.5406C0.441147 1.3053 0.441147 0.92582 0.676558 0.690519L0.676641 0.690436C0.911885 0.455192 1.29129 0.455043 1.52688 0.690431C1.52691 0.69046 1.52694 0.69049 1.52697 0.690519L8.14635 7.3101L8.4999 7.66366L8.85346 7.3101L15.4731 0.690436C15.7084 0.455117 16.0881 0.455117 16.3234 0.690436L16.3235 0.690519C16.5589 0.92582 16.5589 1.3053 16.3235 1.5406L16.3234 1.54069L9.7039 8.16035Z" fill="#333333" stroke="#333333"/>
</g>
<defs>
<clipPath id="clip0_7_2806">
<rect width="17" height="17" fill="white"/>
</clipPath>
</defs>
</svg>
