<svg width="24" height="25" viewBox="0 0 24 25" fill="none" xmlns="http://www.w3.org/2000/svg">
<g clip-path="url(#clip0_7_2981)">
<path d="M6 19.7917C6 20.9375 6.9 21.875 8 21.875H16C17.1 21.875 18 20.9375 18 19.7917V9.375C18 8.22917 17.1 7.29167 16 7.29167H8C6.9 7.29167 6 8.22917 6 9.375V19.7917ZM18 4.16667H15.5L14.79 3.42708C14.61 3.23958 14.35 3.125 14.09 3.125H9.91C9.65 3.125 9.39 3.23958 9.21 3.42708L8.5 4.16667H6C5.45 4.16667 5 4.63542 5 5.20833C5 5.78125 5.45 6.25 6 6.25H18C18.55 6.25 19 5.78125 19 5.20833C19 4.63542 18.55 4.16667 18 4.16667Z" fill="#DC0714"/>
</g>
<defs>
<clipPath id="clip0_7_2981">
<rect width="24" height="25" fill="white"/>
</clipPath>
</defs>
</svg>
